<?xml version="1.0" standalone="no"?>
<!DOCTYPE svg PUBLIC "-//W3C//DTD SVG 20010904//EN"
 "http://www.w3.org/TR/2001/REC-SVG-20010904/DTD/svg10.dtd">
<svg version="1.0" xmlns="http://www.w3.org/2000/svg"
 width="1080.000000pt" height="1080.000000pt" viewBox="0 0 1080.000000 1080.000000"
 preserveAspectRatio="xMidYMid meet">

<g transform="translate(0.000000,1080.000000) scale(0.100000,-0.100000)"
fill="#000000" stroke="none">
<path d="M0 5400 l0 -5400 5400 0 5400 0 0 5400 0 5400 -5400 0 -5400 0 0
-5400z m4409 818 c13 -21 192 -276 295 -420 23 -32 57 -80 76 -108 19 -28 69
-97 110 -155 41 -58 91 -127 110 -154 19 -27 36 -48 38 -46 4 4 -24 54 -128
229 l-59 99 -1 289 -1 288 251 0 250 0 -2 -722 -3 -723 -247 -3 -246 -2 -34
53 c-18 29 -59 89 -91 133 -32 43 -104 144 -161 224 -394 559 -426 599 -257
320 l76 -125 5 -303 5 -302 -245 2 -245 3 -3 723 -2 722 248 0 c246 0 247 0
261 -22z m2519 -700 l-3 -723 -245 0 -245 0 -3 121 -3 121 103 18 c57 10 110
22 118 26 8 5 -195 9 -452 9 -258 0 -468 -2 -468 -4 0 -5 66 -19 173 -37 l67
-11 0 -124 0 -124 -245 0 -245 0 0 725 0 725 725 0 725 0 -2 -722z m-3328
-953 l0 -35 -82 -2 -83 -2 83 -3 82 -4 0 -74 0 -75 -115 0 -115 0 0 35 0 35
75 0 c43 0 75 4 75 10 0 6 -32 10 -75 10 l-75 0 0 70 0 70 115 0 115 0 0 -35z
m250 -80 l0 -115 -115 0 -115 0 0 115 0 115 115 0 115 0 0 -115z m230 80 l0
-35 -67 -2 -68 -2 58 -3 57 -4 0 -34 0 -35 -55 0 -55 0 0 -40 0 -40 -40 0 -40
0 0 115 0 115 105 0 105 0 0 -35z m250 0 c0 -34 -1 -35 -40 -35 l-40 0 0 -80
0 -80 -35 0 -34 0 -3 78 -3 77 -37 3 c-36 3 -38 5 -38 38 l0 34 115 0 115 0 0
-35z m99 -2 c6 -21 11 -44 11 -52 0 -9 4 -10 13 -4 6 6 24 9 38 6 25 -3 27 0
33 42 7 45 7 45 47 45 34 0 40 -3 35 -17 -2 -10 -7 -38 -11 -63 -3 -25 -11
-69 -16 -97 -10 -51 -11 -53 -44 -53 -22 0 -38 6 -44 18 -10 16 -12 16 -25 0
-8 -11 -27 -18 -48 -18 l-34 0 -17 103 c-22 132 -23 127 18 127 31 0 35 -3 44
-37z m421 -78 l0 -115 -40 0 c-36 0 -40 3 -40 25 0 22 -4 25 -35 25 -31 0 -35
-3 -35 -25 0 -22 -4 -25 -40 -25 l-40 0 0 115 0 115 115 0 115 0 0 -115z m250
20 c0 -82 -2 -95 -17 -95 -14 0 -14 -2 2 -20 18 -20 17 -20 -28 -20 -36 0 -50
5 -59 20 -7 11 -21 20 -30 20 -11 0 -18 -8 -18 -20 0 -17 -7 -20 -40 -20 l-40
0 0 115 0 115 115 0 115 0 0 -95z m230 55 l0 -40 -67 -2 -68 -2 58 -3 c55 -4
57 -5 57 -33 0 -28 -2 -29 -57 -33 l-58 -3 68 -2 67 -2 0 -40 0 -40 -105 0
-105 0 0 120 0 120 105 0 105 0 0 -40z m400 -75 l0 -115 -115 0 -115 0 0 115
0 115 115 0 115 0 0 -115z m230 74 l0 -41 -65 4 c-36 1 -65 0 -65 -4 0 -5 25
-8 55 -8 54 0 55 0 55 -30 0 -28 -1 -29 -57 -33 l-58 -3 68 -2 67 -2 0 -40 0
-40 -105 0 -105 0 0 120 0 120 105 0 105 0 0 -41z m104 19 c3 -13 11 -50 17
-83 13 -67 13 -67 29 33 l12 72 43 0 42 0 -13 -82 c-7 -46 -16 -98 -19 -115
l-6 -33 -77 0 -78 0 -17 103 c-10 56 -17 108 -17 115 0 7 15 12 40 12 33 0 40
-4 44 -22z m366 -18 l0 -40 -67 -2 -68 -2 58 -3 c55 -4 57 -5 57 -33 0 -28 -2
-29 -57 -33 l-58 -3 68 -2 67 -2 0 -40 0 -40 -105 0 -105 0 0 120 0 120 105 0
105 0 0 -40z m100 -40 l0 -80 65 0 65 0 0 -35 0 -35 -105 0 -105 0 0 115 0
115 40 0 40 0 0 -80z m380 -35 l0 -115 -115 0 -115 0 0 115 0 115 115 0 115 0
0 -115z m250 20 l0 -95 -75 0 c-68 0 -75 -2 -75 -20 0 -17 -7 -20 -40 -20
l-40 0 0 115 0 115 115 0 115 0 0 -95z m230 55 l0 -40 -67 -2 -68 -2 58 -3
c55 -4 57 -5 57 -33 0 -28 -2 -29 -57 -33 l-58 -3 68 -2 67 -2 0 -40 0 -40
-105 0 -105 0 0 120 0 120 105 0 105 0 0 -40z m250 -55 c0 -82 -2 -95 -17 -95
-14 0 -14 -2 2 -20 18 -20 17 -20 -28 -20 -36 0 -50 5 -59 20 -7 11 -21 20
-30 20 -11 0 -18 -8 -18 -20 0 -17 -7 -20 -40 -20 l-40 0 0 115 0 115 115 0
115 0 0 -95z"/>
<path d="M5845 5781 l120 -16 3 -122 c3 -141 18 -125 -138 -145 l-105 -13 243
-3 c134 -1 350 -1 480 0 l237 3 -100 13 c-55 7 -112 15 -127 18 l-28 6 0 119
c0 65 1 119 3 120 1 0 58 9 127 19 l125 18 -480 0 -480 0 120 -17z"/>
<path d="M3700 4485 c0 -45 0 -45 35 -45 35 0 35 0 35 45 0 45 0 45 -35 45
-35 0 -35 0 -35 -45z"/>
<path d="M4700 4505 c0 -22 4 -25 34 -25 28 0 34 4 38 25 5 23 2 25 -33 25
-35 0 -39 -3 -39 -25z"/>
<path d="M4950 4504 c0 -23 3 -25 38 -22 30 2 37 7 38 26 1 19 -4 22 -37 22
-35 0 -39 -3 -39 -26z"/>
<path d="M5580 4485 c0 -45 0 -45 35 -45 35 0 35 0 35 45 0 45 0 45 -35 45
-35 0 -35 0 -35 -45z"/>
<path d="M6760 4485 c0 -45 0 -45 35 -45 35 0 35 0 35 45 0 45 0 45 -35 45
-35 0 -35 0 -35 -45z"/>
<path d="M7010 4505 c0 -22 4 -25 34 -25 33 0 47 13 39 38 -3 6 -20 12 -39 12
-30 0 -34 -3 -34 -25z"/>
<path d="M7490 4505 c0 -22 4 -25 34 -25 25 0 35 5 39 19 6 26 0 31 -40 31
-29 0 -33 -3 -33 -25z"/>
</g>
</svg>
